#Comment line ignore any data following # character 
#Hierarchical Translation and Rotation (.htr) file 
[Header]	
#Header keywords are followed by a single value 
FileType HTR		#Single word string
DataType HTRS		#Translation followed by rotation and scale data
FileVersion 1		#integer
NumSegments 84		#integer
NumFrames 2		#integer
DataFrameRate 30		#integer, data frame rate in this file
EulerRotationOrder ZYX
CalibrationUnits mm
RotationUnits Degrees
GlobalAxisofGravity Y
BoneLengthAxis Y
ScaleFactor 1.00
[SegmentNames&Hierarchy]
#CHILD	PARENT
MASTER GLOBAL
root MASTER
chest root
L_mid_tent01 root
R_mid_tent01 root
spine01 root
Bip01_Neck chest
L_humerus chest
R_humerus chest
weapon_bone chest
Bip01_Head Bip01_Neck
eye_left_bone Bip01_Head
eye_right_bone Bip01_Head
L_forearm L_humerus
L_front_hand L_forearm
L_weapon_bone L_forearm
L_front_hand01_01 L_front_hand
L_front_hand02_01 L_front_hand
L_front_hand03_01 L_front_hand
L_front_hand01_02 L_front_hand01_01
L_front_hand02_02 L_front_hand02_01
L_front_hand03_02 L_front_hand03_01
R_forearm R_humerus
R_front_hand R_forearm
R_weapon_bone R_forearm
R_front_hand01_01 R_front_hand
R_front_hand02_01 R_front_hand
R_front_hand03_01 R_front_hand
R_front_hand01_02 R_front_hand01_01
R_front_hand02_02 R_front_hand02_01
R_front_hand03_02 R_front_hand03_01
null_rope01_connect L_mid_tent01
Rope1_Seg01 null_rope01_connect
Rope1_Seg02 Rope1_Seg01
Rope1_Seg03 Rope1_Seg02
Rope1_Seg04 Rope1_Seg03
Rope1_Seg05 Rope1_Seg04
Rope1_Seg06 Rope1_Seg05
Rope1_Seg07 Rope1_Seg06
Rope1_Seg09 Rope1_Seg07
L_mid_hand01 Rope1_Seg09
L_mid_hand02 Rope1_Seg09
L_mid_hand03 Rope1_Seg09
null_rope02_connect R_mid_tent01
Rope2_Seg01 null_rope02_connect
Rope2_Seg02 Rope2_Seg01
Rope2_Seg03 Rope2_Seg02
Rope2_Seg04 Rope2_Seg03
Rope2_Seg05 Rope2_Seg04
Rope2_Seg06 Rope2_Seg05
Rope2_Seg07 Rope2_Seg06
Rope2_Seg09 Rope2_Seg07
R_mid_hand01 Rope2_Seg09
R_mid_hand02 Rope2_Seg09
R_mid_hand03 Rope2_Seg09
spine02 spine01
spine03 spine02
pelvis spine03
null_rope03_connect pelvis
null_rope04_connect pelvis
Rope3_Seg01 null_rope03_connect
Rope3_Seg02 Rope3_Seg01
Rope3_Seg03 Rope3_Seg02
Rope3_Seg04 Rope3_Seg03
Rope3_Seg05 Rope3_Seg04
Rope3_Seg06 Rope3_Seg05
Rope3_Seg07 Rope3_Seg06
Rope3_Seg08 Rope3_Seg07
Rope3_Seg09 Rope3_Seg08
R_rear_hand01 Rope3_Seg09
R_rear_hand02 Rope3_Seg09
R_rear_hand03 Rope3_Seg09
Rope4_Seg01 null_rope04_connect
Rope4_Seg02 Rope4_Seg01
Rope4_Seg03 Rope4_Seg02
Rope4_Seg04 Rope4_Seg03
Rope4_Seg05 Rope4_Seg04
Rope4_Seg06 Rope4_Seg05
Rope4_Seg07 Rope4_Seg06
Rope4_Seg08 Rope4_Seg07
Rope4_Seg09 Rope4_Seg08
L_rear_hand01 Rope4_Seg09
L_rear_hand02 Rope4_Seg09
L_rear_hand03 Rope4_Seg09
[BasePosition]
#SegmentName Tx, Ty, Tz, Rx, Ry, Rz, BoneLength
MASTER 0.000000 0.000000 0.000000 -90.000000 0.000000 0.000000 10.000000 
root 0.000000 0.000000 0.000000 0.000000 0.000000 0.000000 10.000000 
chest 0.000000 0.000000 0.000000 0.000000 0.000000 0.000000 10.000000 
L_mid_tent01 0.000000 0.000000 0.000000 0.000000 0.000000 0.000000 10.000000 
R_mid_tent01 0.000000 0.000000 0.000000 0.000000 0.000000 0.000000 10.000000 
spine01 0.000000 0.000000 0.000000 0.000000 0.000000 0.000000 10.000000 
Bip01_Neck 0.000000 0.000000 0.000000 0.000000 0.000000 0.000000 10.000000 
L_humerus 0.000000 0.000000 0.000000 0.000000 0.000000 0.000000 10.000000 
R_humerus 0.000000 0.000000 0.000000 0.000000 0.000000 0.000000 10.000000 
weapon_bone 0.000000 0.000000 0.000000 0.000000 0.000000 0.000000 10.000000 
Bip01_Head 0.000000 0.000000 0.000000 0.000000 0.000000 0.000000 10.000000 
eye_left_bone 0.000000 0.000000 0.000000 0.000000 0.000000 0.000000 10.000000 
eye_right_bone 0.000000 0.000000 0.000000 0.000000 0.000000 0.000000 10.000000 
L_forearm 0.000000 0.000000 0.000000 0.000000 0.000000 0.000000 10.000000 
L_front_hand 0.000000 0.000000 0.000000 0.000000 0.000000 0.000000 10.000000 
L_weapon_bone 0.000000 0.000000 0.000000 0.000000 0.000000 0.000000 10.000000 
L_front_hand01_01 0.000000 0.000000 0.000000 0.000000 0.000000 0.000000 10.000000 
L_front_hand02_01 0.000000 0.000000 0.000000 0.000000 0.000000 0.000000 10.000000 
L_front_hand03_01 0.000000 0.000000 0.000000 0.000000 0.000000 0.000000 10.000000 
L_front_hand01_02 0.000000 0.000000 0.000000 0.000000 0.000000 0.000000 10.000000 
L_front_hand02_02 0.000000 0.000000 0.000000 0.000000 0.000000 0.000000 10.000000 
L_front_hand03_02 0.000000 0.000000 0.000000 0.000000 0.000000 0.000000 10.000000 
R_forearm 0.000000 0.000000 0.000000 0.000000 0.000000 0.000000 10.000000 
R_front_hand 0.000000 0.000000 0.000000 0.000000 0.000000 0.000000 10.000000 
R_weapon_bone 0.000000 0.000000 0.000000 0.000000 0.000000 0.000000 10.000000 
R_front_hand01_01 0.000000 0.000000 0.000000 0.000000 0.000000 0.000000 10.000000 
R_front_hand02_01 0.000000 0.000000 0.000000 0.000000 0.000000 0.000000 10.000000 
R_front_hand03_01 0.000000 0.000000 0.000000 0.000000 0.000000 0.000000 10.000000 
R_front_hand01_02 0.000000 0.000000 0.000000 0.000000 0.000000 0.000000 10.000000 
R_front_hand02_02 0.000000 0.000000 0.000000 0.000000 0.000000 0.000000 10.000000 
R_front_hand03_02 0.000000 0.000000 0.000000 0.000000 0.000000 0.000000 10.000000 
null_rope01_connect 0.000000 0.000000 0.000000 0.000000 0.000000 0.000000 10.000000 
Rope1_Seg01 0.000000 0.000000 0.000000 0.000000 0.000000 0.000000 10.000000 
Rope1_Seg02 0.000000 0.000000 0.000000 0.000000 0.000000 0.000000 10.000000 
Rope1_Seg03 0.000000 0.000000 0.000000 0.000000 0.000000 0.000000 10.000000 
Rope1_Seg04 0.000000 0.000000 0.000000 0.000000 0.000000 0.000000 10.000000 
Rope1_Seg05 0.000000 0.000000 0.000000 0.000000 0.000000 0.000000 10.000000 
Rope1_Seg06 0.000000 0.000000 0.000000 0.000000 0.000000 0.000000 10.000000 
Rope1_Seg07 0.000000 0.000000 0.000000 0.000000 0.000000 0.000000 10.000000 
Rope1_Seg09 0.000000 0.000000 0.000000 0.000000 0.000000 0.000000 10.000000 
L_mid_hand01 0.000000 0.000000 0.000000 0.000000 0.000000 0.000000 10.000000 
L_mid_hand02 0.000000 0.000000 0.000000 0.000000 0.000000 0.000000 10.000000 
L_mid_hand03 0.000000 0.000000 0.000000 0.000000 0.000000 0.000000 10.000000 
null_rope02_connect 0.000000 0.000000 0.000000 0.000000 0.000000 0.000000 10.000000 
Rope2_Seg01 0.000000 0.000000 0.000000 0.000000 0.000000 0.000000 10.000000 
Rope2_Seg02 0.000000 0.000000 0.000000 0.000000 0.000000 0.000000 10.000000 
Rope2_Seg03 0.000000 0.000000 0.000000 0.000000 0.000000 0.000000 10.000000 
Rope2_Seg04 0.000000 0.000000 0.000000 0.000000 0.000000 0.000000 10.000000 
Rope2_Seg05 0.000000 0.000000 0.000000 0.000000 0.000000 0.000000 10.000000 
Rope2_Seg06 0.000000 0.000000 0.000000 0.000000 0.000000 0.000000 10.000000 
Rope2_Seg07 0.000000 0.000000 0.000000 0.000000 0.000000 0.000000 10.000000 
Rope2_Seg09 0.000000 0.000000 0.000000 0.000000 0.000000 0.000000 10.000000 
R_mid_hand01 0.000000 0.000000 0.000000 0.000000 0.000000 0.000000 10.000000 
R_mid_hand02 0.000000 0.000000 0.000000 0.000000 0.000000 0.000000 10.000000 
R_mid_hand03 0.000000 0.000000 0.000000 0.000000 0.000000 0.000000 10.000000 
spine02 0.000000 0.000000 0.000000 0.000000 0.000000 0.000000 10.000000 
spine03 0.000000 0.000000 0.000000 0.000000 0.000000 0.000000 10.000000 
pelvis 0.000000 0.000000 0.000000 0.000000 0.000000 0.000000 10.000000 
null_rope03_connect 0.000000 0.000000 0.000000 0.000000 0.000000 0.000000 10.000000 
null_rope04_connect 0.000000 0.000000 0.000000 0.000000 0.000000 0.000000 10.000000 
Rope3_Seg01 0.000000 0.000000 0.000000 0.000000 0.000000 0.000000 10.000000 
Rope3_Seg02 0.000000 0.000000 0.000000 0.000000 0.000000 0.000000 10.000000 
Rope3_Seg03 0.000000 0.000000 0.000000 0.000000 0.000000 0.000000 10.000000 
Rope3_Seg04 0.000000 0.000000 0.000000 0.000000 0.000000 0.000000 10.000000 
Rope3_Seg05 0.000000 0.000000 0.000000 0.000000 0.000000 0.000000 10.000000 
Rope3_Seg06 0.000000 0.000000 0.000000 0.000000 0.000000 0.000000 10.000000 
Rope3_Seg07 0.000000 0.000000 0.000000 0.000000 0.000000 0.000000 10.000000 
Rope3_Seg08 0.000000 0.000000 0.000000 0.000000 0.000000 0.000000 10.000000 
Rope3_Seg09 0.000000 0.000000 0.000000 0.000000 0.000000 0.000000 10.000000 
R_rear_hand01 0.000000 0.000000 0.000000 0.000000 0.000000 0.000000 10.000000 
R_rear_hand02 0.000000 0.000000 0.000000 0.000000 0.000000 0.000000 10.000000 
R_rear_hand03 0.000000 0.000000 0.000000 0.000000 0.000000 0.000000 10.000000 
Rope4_Seg01 0.000000 0.000000 0.000000 0.000000 0.000000 0.000000 10.000000 
Rope4_Seg02 0.000000 0.000000 0.000000 0.000000 0.000000 0.000000 10.000000 
Rope4_Seg03 0.000000 0.000000 0.000000 0.000000 0.000000 0.000000 10.000000 
Rope4_Seg04 0.000000 0.000000 0.000000 0.000000 0.000000 0.000000 10.000000 
Rope4_Seg05 0.000000 0.000000 0.000000 0.000000 0.000000 0.000000 10.000000 
Rope4_Seg06 0.000000 0.000000 0.000000 0.000000 0.000000 0.000000 10.000000 
Rope4_Seg07 0.000000 0.000000 0.000000 0.000000 0.000000 0.000000 10.000000 
Rope4_Seg08 0.000000 0.000000 0.000000 0.000000 0.000000 0.000000 10.000000 
Rope4_Seg09 0.000000 0.000000 0.000000 0.000000 0.000000 0.000000 10.000000 
L_rear_hand01 0.000000 0.000000 0.000000 0.000000 0.000000 0.000000 10.000000 
L_rear_hand02 0.000000 0.000000 0.000000 0.000000 0.000000 0.000000 10.000000 
L_rear_hand03 0.000000 0.000000 0.000000 0.000000 0.000000 0.000000 10.000000 
#Beginning of Data. Separated by tabs
#Fr	Tx	Ty	Tz	Rx	Ry	Rz	SF
[MASTER]
39 -0.000714 4749.997559 0.000000 0.001660 0.001660 0.001660 4749.997559
40 -0.000733 4874.997559 0.000000 0.001660 0.001660 0.001660 4874.997559
[root]
39 -18.500435 -7.038254 1463.739258 -91.728889 -11.584497 -89.471619 1463.873047
40 -17.054880 4.674764 1452.725586 -91.728889 -11.584497 -89.471619 1452.833130
[chest]
39 -84.512650 -34.090519 0.000000 -2.170238 -0.009507 168.207336 91.129311
40 -84.512650 -34.090519 0.000000 -2.170494 -0.006530 168.234634 91.129311
[L_mid_tent01]
39 27.299187 22.179258 -249.918671 -20.621637 11.534523 13.172136 252.381668
40 27.299191 22.179258 -249.918671 -20.641302 11.780300 13.077669 252.381683
[R_mid_tent01]
39 23.228794 24.509907 226.238495 -165.266144 -17.058962 24.303513 228.744751
40 23.228794 24.509907 226.238495 -165.227524 -17.525131 24.175648 228.744751
[spine01]
39 -0.361383 -0.195265 0.000000 0.001947 0.001311 22.072001 0.410763
40 -0.361383 -0.195265 0.000000 0.001947 0.001311 22.061924 0.410763
[Bip01_Neck]
39 165.484543 71.581718 0.000119 176.643677 -1.657967 43.431911 180.302734
40 165.484543 71.581718 0.000119 176.643677 -1.657967 43.431911 180.302734
[L_humerus]
39 -13.983130 -135.272980 -120.471481 -10.257071 80.510460 79.948570 181.680161
40 -13.983130 -135.272980 -120.471481 -6.902906 74.468750 83.224350 181.680161
[R_humerus]
39 -13.983309 -135.273102 125.287651 50.315762 -79.318863 45.466564 184.909012
40 -13.983309 -135.273102 125.287651 35.255085 -74.680359 60.460979 184.909012
[weapon_bone]
39 235.964890 -300.705902 0.000000 0.000000 -89.951546 -128.212341 382.234833
40 235.964890 -300.705902 0.000000 0.000000 -89.951546 -128.212341 382.234833
[Bip01_Head]
39 213.328369 186.038651 7.603730 4.443141 0.096319 -43.897816 283.155762
40 213.327698 186.040344 7.581496 4.822133 3.160981 -43.866894 283.155792
[eye_left_bone]
39 -24.626970 125.451866 -64.772606 0.000000 -90.000000 -99.840431 143.318359
40 -24.626970 125.451866 -64.772606 0.000000 -90.000000 -99.840431 143.318359
[eye_right_bone]
39 -24.626970 125.451866 64.327362 0.000000 -89.965736 80.156380 143.117676
40 -24.626970 125.451866 64.327362 0.000000 -89.965736 80.156380 143.117676
[L_forearm]
39 322.776093 0.000000 -0.000119 0.000397 -0.002313 -109.453300 322.776093
40 322.776093 0.000000 -0.000119 0.000396 -0.002314 -109.426048 322.776093
[L_front_hand]
39 241.149185 -0.042021 -3.300071 -178.667953 -1.835447 -27.422350 241.171753
40 241.149185 -0.042021 -3.300071 -178.667953 -1.835447 -27.422350 241.171753
[L_weapon_bone]
39 156.183838 0.000000 0.000000 0.000014 0.000007 0.000001 156.183838
40 156.183838 0.000000 0.000000 0.000014 0.000007 0.000001 156.183838
[L_front_hand01_01]
39 86.095154 20.947098 -0.655860 -0.366594 -0.477154 75.385574 88.609184
40 86.095154 20.947098 -0.655860 -0.366594 -0.477154 75.385574 88.609184
[L_front_hand02_01]
39 86.935165 -11.437475 24.513514 154.399796 -59.883835 -61.369587 91.046425
40 86.935165 -11.437475 24.513514 154.399796 -59.883835 -61.369587 91.046425
[L_front_hand03_01]
39 86.637497 -14.123976 -20.424902 -153.913849 58.118130 -62.702866 90.126129
40 86.637497 -14.123976 -20.424902 -153.913849 58.118122 -62.702866 90.126129
[L_front_hand01_02]
39 71.020905 -0.000179 0.000030 0.000334 -0.002323 -106.354980 71.020905
40 71.020905 -0.000179 0.000030 0.000334 -0.002323 -106.367340 71.020905
[L_front_hand02_02]
39 71.020927 -0.000119 0.000060 0.000334 -0.002323 -106.354980 71.020927
40 71.020927 -0.000119 0.000060 0.000334 -0.002323 -106.367340 71.020927
[L_front_hand03_02]
39 71.020905 -0.000060 0.000060 0.000334 -0.002323 -106.354980 71.020905
40 71.020905 -0.000060 0.000060 0.000334 -0.002323 -106.367340 71.020905
[R_forearm]
39 322.776428 -0.000060 0.000030 0.202082 0.065222 -108.099472 322.776428
40 322.776428 -0.000060 0.000030 0.202099 0.065168 -108.068924 322.776428
[R_front_hand]
39 238.847015 -0.006795 2.210259 -2.635298 -10.645461 -26.312506 238.857239
40 238.847015 -0.006795 2.210259 -2.635298 -10.645461 -26.312506 238.857239
[R_weapon_bone]
39 155.664093 0.002503 -0.000030 0.003487 0.001180 -90.988930 155.664078
40 155.664093 0.002503 -0.000030 0.003487 0.001180 -90.988930 155.664078
[R_front_hand01_01]
39 87.624611 14.231146 22.918642 -154.633499 -59.950619 61.746044 91.683487
40 87.624611 14.231146 22.918642 -154.633499 -59.950619 61.746044 91.683487
[R_front_hand02_01]
39 89.356956 14.367283 -19.491137 154.602661 58.302849 63.744389 92.579636
40 89.356956 14.367283 -19.491137 154.602661 58.302849 63.744389 92.579636
[R_front_hand03_01]
39 87.286232 -22.307278 -0.143439 0.162155 -0.423168 -75.767921 90.091743
40 87.286232 -22.307278 -0.143439 0.162155 -0.423168 -75.767921 90.091743
[R_front_hand01_02]
39 71.020905 0.000060 0.000119 0.002323 -0.000334 106.381714 71.020905
40 71.020905 0.000060 0.000119 0.002323 -0.000334 106.381714 71.020905
[R_front_hand02_02]
39 71.020844 -0.000030 -0.000119 0.002323 -0.000334 106.381714 71.020836
40 71.020844 -0.000030 -0.000119 0.002323 -0.000334 106.381714 71.020836
[R_front_hand03_02]
39 71.020905 0.000000 0.000030 0.002323 -0.000334 106.381714 71.020905
40 71.020905 0.000000 0.000030 0.002323 -0.000334 106.381714 71.020905
[null_rope01_connect]
39 328.732483 0.000000 -0.000238 -155.569687 -65.043144 -117.929901 328.732483
40 328.732483 0.000000 -0.000238 -155.023987 -64.918228 -118.424675 328.732483
[Rope1_Seg01]
39 -0.000036 -0.000292 0.000008 85.703583 4.324769 -96.469696 0.000294
40 -0.000037 -0.000298 0.000004 86.921288 4.197022 -95.469124 0.000301
[Rope1_Seg02]
39 139.999863 -0.000179 0.000000 3.616397 5.139986 -1.103992 139.999863
40 139.999863 -0.000179 0.000000 3.366043 4.904254 -1.097214 139.999863
[Rope1_Seg03]
39 139.999924 0.000060 -0.000060 0.422939 4.223220 -3.883380 139.999924
40 139.999924 0.000060 -0.000060 0.564608 4.147065 -3.596208 139.999924
[Rope1_Seg04]
39 139.999924 -0.000060 -0.000119 4.025140 5.178133 1.040766 139.999924
40 139.999924 -0.000060 -0.000119 3.554230 4.688977 0.795972 139.999924
[Rope1_Seg05]
39 139.999832 0.000119 -0.000060 6.293284 3.504245 6.317288 139.999832
40 139.999832 0.000119 -0.000060 5.553066 2.847600 5.828212 139.999832
[Rope1_Seg06]
39 139.999954 0.000119 -0.000060 2.415950 1.685906 2.016241 139.999954
40 139.999954 0.000119 -0.000060 2.212340 1.418683 1.943631 139.999954
[Rope1_Seg07]
39 139.999985 0.000060 0.000000 1.311198 1.029296 0.968069 139.999985
40 139.999985 0.000060 0.000000 1.210801 0.882036 0.940857 139.999985
[Rope1_Seg09]
39 121.602913 0.000119 -0.000089 -89.793175 -1.359789 0.847147 121.602913
40 121.602913 0.000119 -0.000089 -89.793175 -1.359789 0.847147 121.602913
[L_mid_hand01]
39 103.859421 1.038730 8.195221 130.544373 -67.584534 -38.866943 104.187431
40 103.859421 1.038730 8.195221 130.544373 -67.584534 -38.866943 104.187431
[L_mid_hand02]
39 105.572853 -4.139662 -10.864139 -168.923172 43.409309 -73.498886 106.211075
40 105.572853 -4.139662 -10.864139 -168.923172 43.409309 -73.498886 106.211075
[L_mid_hand03]
39 104.641464 17.579376 -3.913581 -6.012627 17.808174 74.893669 106.179977
40 104.641464 17.579376 -3.913581 -6.012627 17.808174 74.893669 106.179977
[null_rope02_connect]
39 328.732849 0.000179 -0.000119 -141.683624 68.851418 -36.524952 328.732849
40 328.732849 0.000179 -0.000119 -140.903992 68.466606 -35.800808 328.732849
[Rope2_Seg01]
39 0.000113 -0.000284 0.000000 -35.993237 2.043479 -82.626244 0.000306
40 0.000113 -0.000295 0.000000 -36.469063 2.640786 -84.512711 0.000316
[Rope2_Seg02]
39 139.999741 -0.000060 -0.000119 2.170978 2.201145 1.413844 139.999756
40 139.999741 -0.000060 -0.000119 2.657992 1.674507 2.331362 139.999756
[Rope2_Seg03]
39 140.000107 0.000030 0.000000 5.716195 1.687661 5.550462 140.000107
40 140.000107 0.000030 0.000000 6.213623 1.748024 6.296437 140.000107
[Rope2_Seg04]
39 139.999802 0.000000 -0.000060 -4.505249 0.590743 -5.681249 139.999802
40 139.999802 0.000000 -0.000060 -4.340907 -0.225196 -5.198212 139.999802
[Rope2_Seg05]
39 139.999985 -0.000060 0.000119 -7.484453 0.225194 -10.555025 139.999985
40 139.999985 -0.000060 0.000119 -7.962330 -0.963724 -10.551236 139.999985
[Rope2_Seg06]
39 139.999893 -0.000030 -0.000119 -2.506452 0.770750 -4.216175 139.999893
40 139.999893 -0.000030 -0.000119 -2.786017 0.293929 -4.265973 139.999893
[Rope2_Seg07]
39 139.999893 0.000060 -0.000060 -1.376635 0.589935 -2.508359 139.999893
40 139.999893 0.000060 -0.000060 -1.548791 0.313571 -2.545108 139.999893
[Rope2_Seg09]
39 121.338966 0.000089 -0.000060 33.793236 -1.359788 -0.847141 121.338966
40 121.338966 0.000089 -0.000060 33.793236 -1.359788 -0.847141 121.338966
[R_mid_hand01]
39 104.680779 11.144459 -10.335981 -16.212063 45.237247 70.462852 105.778534
40 104.680779 11.144459 -10.335981 -16.212063 45.237247 70.462852 105.778534
[R_mid_hand02]
39 104.070427 2.443552 8.231699 49.067368 -67.749771 39.286453 104.424065
40 104.070427 2.443552 8.231699 49.067368 -67.749771 39.286453 104.424065
[R_mid_hand03]
39 106.028137 -11.221827 -5.996406 -177.101105 15.551026 -76.585571 106.788818
40 106.028137 -11.221827 -5.996406 -177.101105 15.551026 -76.585571 106.788818
[spine02]
39 129.756927 0.001550 0.000119 0.361470 -4.044672 -12.954954 129.756927
40 129.756927 0.001550 0.000119 0.360765 -4.044735 -12.935005 129.756927
[spine03]
39 78.613899 0.081635 -4.899024 1.897722 3.830681 16.509747 78.766441
40 78.613892 0.081635 -4.899024 1.897108 3.830984 16.491398 78.766434
[pelvis]
39 169.435242 0.051022 0.000000 -0.060567 -0.180191 14.152716 169.435257
40 169.435242 0.051022 0.000000 -0.060489 -0.180217 14.102880 169.435257
[null_rope03_connect]
39 -1.257226 -2.466202 137.391083 156.220642 -89.387070 -94.382919 137.418976
40 -1.257226 -2.466202 137.391083 156.460938 -89.385155 -94.574318 137.418976
[null_rope04_connect]
39 -1.259640 -2.480268 -137.844437 156.220642 -89.387070 -94.382919 137.872513
40 -1.259640 -2.480268 -137.844437 156.460938 -89.385155 -94.574318 137.872513
[Rope3_Seg01]
39 0.000010 0.000038 -0.000114 13.669191 31.573799 -88.794212 0.000121
40 0.000010 0.000038 -0.000114 14.664019 30.650072 -86.870705 0.000121
[Rope3_Seg02]
39 139.999924 -0.000119 0.000060 0.059400 -2.650710 1.781291 139.999924
40 139.999924 -0.000119 0.000060 0.022144 -2.397522 1.148876 139.999924
[Rope3_Seg03]
39 139.999924 -0.000119 0.000119 0.037966 -3.259328 2.202451 139.999924
40 139.999924 -0.000119 0.000119 0.026821 -2.857775 1.371424 139.999924
[Rope3_Seg04]
39 139.999924 0.000119 0.000000 -0.114853 -1.766048 4.025613 139.999924
40 139.999924 0.000119 0.000000 -0.039275 -0.581306 2.217726 139.999924
[Rope3_Seg05]
39 139.999924 -0.000238 0.000060 -0.211765 -6.893605 3.131305 139.999924
40 139.999924 -0.000238 0.000060 -0.015057 -6.035471 1.914256 139.999924
[Rope3_Seg06]
39 139.999893 -0.000119 -0.000060 1.288241 -12.893559 -2.090216 139.999893
40 139.999893 -0.000119 -0.000060 1.371430 -14.295659 -0.349802 139.999893
[Rope3_Seg07]
39 139.999771 0.000060 -0.000119 1.648109 -7.500074 -0.844953 139.999771
40 139.999771 0.000060 -0.000119 1.910321 -8.738447 0.078908 139.999771
[Rope3_Seg08]
39 139.999985 -0.000060 0.000000 1.396650 -4.162384 -0.118391 139.999985
40 139.999985 -0.000060 0.000000 1.581624 -4.747718 0.337062 139.999985
[Rope3_Seg09]
39 90.185997 -0.000179 -0.000060 89.793228 -1.359877 -0.847183 90.185997
40 90.185997 -0.000179 -0.000060 89.793228 -1.359877 -0.847183 90.185997
[R_rear_hand01]
39 103.366196 -6.073594 -10.757982 -177.714203 24.565960 -73.910950 104.101845
40 103.366196 -6.073594 -10.757982 -177.714203 24.565960 -73.910950 104.101845
[R_rear_hand02]
39 100.509819 12.039542 -7.992327 -12.874829 36.868488 72.167213 101.543350
40 100.509819 12.039542 -7.992327 -12.874834 36.868492 72.167213 101.543350
[R_rear_hand03]
39 101.539970 5.215704 5.435467 71.484581 -71.816628 21.513813 101.819031
40 101.539970 5.215704 5.435467 71.484581 -71.816628 21.513813 101.819031
[Rope4_Seg01]
39 0.000010 0.000038 -0.000114 -92.895508 26.891726 -85.902214 0.000121
40 0.000010 0.000038 -0.000114 -92.911293 26.744034 -85.904213 0.000121
[Rope4_Seg02]
39 139.999985 0.000060 0.000119 0.031908 -0.225760 -0.290201 139.999985
40 139.999985 0.000060 0.000119 0.046449 -0.240629 -0.131971 139.999985
[Rope4_Seg03]
39 139.999924 0.000000 -0.000238 0.061268 -0.245562 -0.122117 139.999924
40 139.999924 0.000000 -0.000238 0.080649 -0.260505 0.060821 139.999924
[Rope4_Seg04]
39 139.999985 0.000000 0.000119 0.527113 -0.103666 4.601949 139.999985
40 139.999985 0.000000 0.000119 0.559193 -0.156376 4.992731 139.999985
[Rope4_Seg05]
39 139.999802 -0.000060 -0.000119 -0.623516 -0.645209 -6.873668 139.999802
40 139.999802 -0.000060 -0.000119 -0.615373 -0.610409 -6.938299 139.999802
[Rope4_Seg06]
39 139.999924 0.000000 0.000060 -2.078392 -0.594950 -12.273589 139.999924
40 139.999924 0.000000 0.000060 -2.117194 -0.505121 -12.563684 139.999924
[Rope4_Seg07]
39 139.999802 0.000000 0.000000 -1.147807 -0.089947 -5.187499 139.999802
40 139.999802 0.000000 0.000000 -1.154748 -0.046206 -5.237448 139.999802
[Rope4_Seg08]
39 139.999924 0.000000 0.000119 -2.229692 0.001716 -2.793490 139.999924
40 139.999924 0.000000 0.000119 -2.230056 0.016307 -2.806147 139.999924
[Rope4_Seg09]
39 90.185791 0.000060 0.000060 -135.617828 2.228885 0.850567 90.185791
40 90.185791 0.000060 0.000060 -135.617828 2.228885 0.850567 90.185791
[L_rear_hand01]
39 101.696655 -8.392275 -7.654577 -12.874829 -36.868488 107.832764 102.329041
40 101.696655 -8.392275 -7.654577 -12.874829 -36.868488 107.832764 102.329041
[L_rear_hand02]
39 102.726799 -1.568258 5.773216 71.484581 71.816628 158.486160 102.900848
40 102.726799 -1.568258 5.773216 71.484619 71.816643 158.486160 102.900848
[L_rear_hand03]
39 104.552910 9.721220 -10.420293 -177.714203 -24.565960 -106.089035 105.519653
40 104.552910 9.721220 -10.420293 -177.714203 -24.565960 -106.089035 105.519653
